<?xml version="1.0" standalone="no"?>
<!DOCTYPE svg PUBLIC "-//W3C//DTD SVG 20010904//EN"
 "http://www.w3.org/TR/2001/REC-SVG-20010904/DTD/svg10.dtd">
<svg version="1.0" xmlns="http://www.w3.org/2000/svg"
 width="461.000000pt" height="273.000000pt" viewBox="0 0 461.000000 273.000000"
 preserveAspectRatio="xMidYMid meet">

<g transform="translate(0.000000,273.000000) scale(0.100000,-0.100000)"
fill="#000000" stroke="none">
<path d="M3782 2680 c0 -14 2 -19 5 -12 2 6 2 18 0 25 -3 6 -5 1 -5 -13z"/>
<path d="M2785 2653 c-36 -4 -54 -16 -55 -35 0 -10 58 -26 113 -31 l47 -5 0
39 c0 43 2 42 -105 32z"/>
<path d="M2953 2448 l2 -213 150 -12 c83 -6 160 -12 173 -12 l22 -1 0 199 c0
115 -4 202 -9 206 -9 5 -296 44 -328 45 -10 0 -12 -50 -10 -212z m164 156 c-3
-3 -12 -4 -19 -1 -8 3 -5 6 6 6 11 1 17 -2 13 -5z"/>
<path d="M2403 2535 c0 -27 2 -38 4 -22 2 15 2 37 0 50 -2 12 -4 0 -4 -28z"/>
<path d="M3781 2464 c0 -11 3 -14 6 -6 3 7 2 16 -1 19 -3 4 -6 -2 -5 -13z"/>
<path d="M4250 2441 c-15 -29 -12 -67 6 -82 14 -11 19 -10 35 10 23 28 25 77
3 85 -25 10 -33 7 -44 -13z"/>
<path d="M2756 2423 c-11 -11 -6 -23 9 -23 8 0 15 4 15 9 0 13 -16 22 -24 14z"/>
<path d="M4570 2375 c-16 -42 3 -104 33 -105 4 0 7 29 7 65 0 52 -3 65 -15 65
-9 0 -20 -11 -25 -25z"/>
<path d="M4457 2368 c-12 -9 -18 -28 -18 -66 -1 -29 0 -55 3 -57 2 -3 24 -1
49 3 l44 8 0 59 c0 59 0 60 -30 63 -16 2 -38 -3 -48 -10z"/>
<path d="M3802 2359 c-19 -7 -22 -16 -22 -62 0 -60 5 -70 29 -57 9 5 24 11 34
14 13 4 17 16 17 55 0 53 -15 66 -58 50z"/>
<path d="M2752 2355 c6 -7 44 -12 96 -14 42 -1 32 -21 -10 -21 -17 0 -28 -3
-24 -7 8 -8 13 -9 41 -12 8 0 15 -6 15 -12 0 -7 -21 -10 -60 -7 -36 2 -60 -1
-60 -7 0 -5 32 -11 71 -13 l70 -3 -3 48 -3 48 -70 3 c-38 2 -67 0 -63 -3z"/>
<path d="M2778 2313 c7 -3 16 -2 19 1 4 3 -2 6 -13 5 -11 0 -14 -3 -6 -6z"/>
<path d="M4003 2290 c-20 -8 -23 -17 -23 -65 0 -54 0 -55 29 -55 40 0 61 24
61 69 0 55 -20 70 -67 51z"/>
<path d="M3483 2283 c-16 -6 -18 -99 -3 -108 16 -10 48 4 54 23 3 9 2 33 -2
52 -8 34 -23 44 -49 33z"/>
<path d="M1204 2261 c-10 -10 -3 -39 12 -45 24 -9 102 -7 108 3 15 24 -7 39
-61 43 -30 1 -57 1 -59 -1z"/>
<path d="M135 2247 c-2 -7 -5 -27 -8 -45 -4 -39 9 -48 68 -47 l40 0 0 50 0 50
-48 2 c-30 1 -49 -2 -52 -10z"/>
<path d="M1369 2234 c-1 -16 -2 -47 -3 -69 -1 -40 -1 -40 -45 -43 -62 -5 -91
4 -91 28 0 20 -11 26 -23 13 -4 -3 -2 -12 4 -19 14 -17 -5 -28 -36 -20 -19 5
-24 14 -27 44 -3 35 -5 37 -38 37 -33 0 -35 -2 -38 -38 -3 -36 -5 -38 -32 -35
-44 4 -77 -19 -82 -57 -5 -43 0 -55 21 -55 20 0 18 15 48 -320 14 -155 19
-189 21 -137 l3 67 64 0 c58 0 65 -2 65 -20 0 -17 -7 -20 -45 -20 -41 0 -45
-2 -45 -24 0 -22 5 -25 42 -28 31 -2 44 -8 46 -20 3 -15 -4 -18 -42 -18 l-46
0 0 -59 c0 -48 -3 -60 -17 -64 -10 -3 13 -5 50 -6 38 0 77 4 88 9 18 10 18 13
4 33 -32 45 -5 117 49 131 19 5 27 15 32 40 17 95 127 117 167 33 9 -20 22
-37 27 -37 6 0 10 -11 10 -24 0 -19 4 -22 25 -18 21 4 25 0 25 -19 l0 -24 20
25 c11 14 20 37 20 53 0 17 5 27 15 27 18 0 18 -2 4 96 -6 43 -15 125 -20 183
-5 58 -11 127 -15 154 l-6 47 35 0 c20 0 39 5 43 12 9 14 5 140 -4 150 -4 4
-67 10 -139 14 l-133 7 -1 -29z m121 -264 c0 -5 -7 -10 -15 -10 -8 0 -15 5
-15 10 0 6 7 10 15 10 8 0 15 -4 15 -10z m5 -40 c3 -5 -3 -10 -15 -10 -12 0
-18 5 -15 10 3 6 10 10 15 10 5 0 12 -4 15 -10z"/>
<path d="M4383 2243 c-34 -7 -44 -27 -41 -80 3 -47 4 -48 39 -51 48 -4 61 14
57 80 -3 55 -9 60 -55 51z"/>
<path d="M595 2218 c-2 -7 -1 -29 3 -48 7 -33 10 -35 47 -35 l40 0 0 45 0 45
-43 3 c-28 2 -44 -1 -47 -10z"/>
<path d="M2403 2190 c0 -25 2 -35 4 -22 2 12 2 32 0 45 -2 12 -4 2 -4 -23z"/>
<path d="M2720 2210 c0 -5 5 -10 11 -10 5 0 7 5 4 10 -3 6 -8 10 -11 10 -2 0
-4 -4 -4 -10z"/>
<path d="M3664 2206 c-15 -11 -20 -25 -20 -58 1 -42 1 -43 36 -43 34 0 35 1
38 43 3 39 -10 72 -27 72 -4 0 -16 -6 -27 -14z"/>
<path d="M1744 2196 c-3 -8 0 -25 6 -37 10 -19 10 -24 -4 -34 -9 -7 -16 -19
-16 -28 0 -9 -4 -19 -10 -22 -5 -3 -10 -26 -10 -50 0 -38 3 -44 28 -50 15 -4
22 -9 15 -12 -12 -4 -12 -15 3 -160 6 -55 20 -67 44 -38 7 8 21 15 32 15 20 0
21 -6 -2 123 -5 32 -16 68 -25 80 -8 12 -15 34 -15 49 0 15 -6 33 -14 40 -10
9 -12 29 -9 69 4 36 2 59 -6 63 -6 4 -14 1 -17 -8z"/>
<path d="M2751 2206 c3 -3 35 -9 70 -11 35 -3 116 -12 179 -19 83 -10 117 -10
122 -2 12 19 -15 26 -97 26 -44 -1 -125 2 -180 6 -55 4 -97 4 -94 0z"/>
<path d="M3186 2182 c-2 -4 2 -16 9 -26 10 -14 21 -17 41 -12 23 6 26 4 19
-11 -4 -10 -8 -22 -9 -28 -1 -5 -5 -16 -9 -22 -17 -28 34 -58 67 -41 16 9 18
18 13 63 -4 41 -2 55 9 59 8 3 14 10 14 16 0 12 -146 14 -154 2z"/>
<path d="M0 2030 l0 -140 85 0 c69 0 85 3 85 15 0 30 38 55 85 55 l45 0 0 44
0 45 -48 3 c-47 3 -47 3 -50 41 -3 35 -5 37 -40 39 -79 3 -93 6 -110 22 -10 9
-26 16 -35 16 -15 0 -17 -16 -17 -140z"/>
<path d="M2883 2162 c-6 -4 -13 -24 -17 -44 -5 -30 -3 -39 11 -46 30 -16 43
-3 43 43 0 42 -15 61 -37 47z"/>
<path d="M3404 2162 c-6 -4 -13 -26 -16 -49 -7 -53 10 -72 47 -55 20 9 25 19
25 46 0 60 -21 82 -56 58z"/>
<path d="M3902 2152 c-9 -6 -12 -26 -10 -58 3 -44 6 -49 28 -52 43 -5 59 16
51 68 -5 39 -10 45 -31 48 -14 1 -31 -2 -38 -6z"/>
<path d="M324 2136 c-3 -8 -4 -29 -2 -47 3 -30 7 -34 40 -40 20 -3 41 -3 47 0
12 8 17 72 7 89 -10 17 -85 16 -92 -2z"/>
<path d="M1928 2138 c-2 -7 -2 -26 1 -43 5 -24 12 -31 34 -33 16 -2 35 2 43 9
17 14 18 51 2 67 -16 16 -75 15 -80 0z"/>
<path d="M460 2097 c0 -43 1 -45 35 -51 46 -9 55 -2 55 39 0 39 -2 41 -53 50
l-37 7 0 -45z"/>
<path d="M2353 2100 c4 -16 3 -31 -1 -33 -4 -3 -45 -1 -92 3 -66 5 -88 4 -96
-7 -6 -7 -19 -13 -28 -13 -9 0 -21 -11 -25 -24 -9 -21 -14 -23 -61 -18 -51 5
-51 5 -44 -22 5 -20 2 -26 -10 -26 -9 0 -16 -7 -16 -16 0 -14 3 -14 15 -4 13
11 15 7 15 -24 0 -20 -4 -36 -10 -36 -5 0 -10 9 -10 20 0 11 -5 20 -11 20 -14
0 -3 -47 19 -80 l17 -25 3 33 c3 30 11 39 25 26 3 -3 2 -17 -4 -31 -13 -36 4
-59 49 -67 70 -11 106 -63 83 -121 -6 -15 -9 -11 -14 23 -8 49 -27 57 -27 11
0 -24 -4 -30 -15 -25 -10 3 -15 -1 -15 -14 0 -10 -4 -21 -9 -24 -5 -3 -11 -22
-13 -42 -4 -30 -1 -37 18 -45 13 -4 30 -21 38 -36 l15 -28 1 26 c0 23 6 28 43
35 23 4 50 7 60 6 14 -2 17 3 12 18 -5 16 -3 19 10 13 13 -4 16 -1 13 13 -2
10 -10 19 -18 19 -14 0 -26 33 -29 78 -1 16 7 18 71 15 l73 -3 11 -85 c18
-127 20 -120 -26 -120 l-40 0 0 -56 c0 -51 -2 -55 -22 -54 -42 4 -49 0 -46
-22 4 -27 15 -29 173 -35 72 -3 132 -7 134 -9 10 -10 -12 -13 -117 -15 l-112
-2 0 -26 0 -26 -23 27 c-28 36 -66 30 -68 -11 -1 -21 -2 -22 -6 -6 -3 11 -10
26 -15 32 -11 13 -55 12 -77 -1 -7 -4 -15 -5 -18 -2 -9 8 -8 56 1 96 4 19 3
30 -1 23 -5 -7 -25 -19 -46 -28 -20 -8 -37 -18 -37 -21 0 -2 9 -22 19 -42 16
-32 17 -40 6 -56 -15 -19 -35 -14 -35 10 0 8 -3 14 -7 14 -5 0 -9 -20 -11 -45
-1 -25 -14 -69 -28 -99 -23 -48 -24 -59 -15 -89 15 -45 22 -157 10 -157 -5 0
-9 5 -9 10 0 6 -4 10 -10 10 -5 0 -10 -7 -10 -15 0 -8 5 -15 11 -15 7 0 9 -36
7 -105 -1 -67 -6 -104 -13 -102 -5 2 -10 21 -10 43 0 32 -3 38 -17 36 -13 -2
-18 4 -18 23 0 14 -5 35 -12 48 -6 12 -14 29 -18 37 -4 8 -19 16 -34 18 -24 3
-26 7 -26 51 0 26 -6 56 -14 66 -13 18 -14 18 -25 -3 -6 -11 -11 -41 -11 -66
0 -39 -3 -46 -20 -46 -18 0 -20 7 -20 75 0 52 -4 75 -12 75 -8 0 -9 3 -2 10 7
7 19 8 37 1 19 -7 28 -6 37 4 6 8 9 18 7 22 -10 15 -16 206 -8 222 5 9 11 40
13 68 4 45 3 50 -8 35 -7 -9 -14 -31 -14 -48 0 -28 -4 -32 -37 -37 -25 -4 -45
-2 -60 9 -28 18 -30 34 -3 34 11 0 20 -4 20 -9 0 -6 12 -6 30 0 17 6 30 14 30
19 0 9 -58 23 -84 20 -13 -1 -17 3 -13 14 5 11 1 16 -14 16 -11 0 -22 -7 -25
-15 -4 -8 -12 -15 -20 -15 -23 0 -16 -13 21 -43 25 -20 35 -36 35 -57 0 -19 6
-31 19 -35 10 -3 22 -16 25 -29 5 -19 11 -22 32 -18 20 4 25 1 22 -9 -3 -9
-17 -13 -36 -12 -22 2 -34 -2 -39 -15 -12 -26 -7 -143 7 -177 10 -25 10 -36
-3 -67 -14 -32 -21 -38 -56 -44 -23 -4 -49 -17 -62 -30 -28 -30 -69 -32 -69
-4 0 11 9 29 20 40 16 16 18 24 9 50 -8 23 -8 38 1 61 16 37 37 49 89 49 39 0
40 1 31 24 -5 13 -6 34 -3 46 4 16 3 21 -5 16 -7 -4 -6 5 3 26 17 43 7 101
-19 106 -15 3 -18 -1 -14 -16 4 -13 0 -23 -9 -26 -21 -8 -23 -8 -23 7 0 6 -10
23 -21 37 l-21 25 7 -28 c11 -53 -27 -27 -62 42 -34 65 -46 61 -18 -6 14 -33
14 -38 0 -45 -8 -5 -15 -17 -15 -26 0 -16 -45 -41 -87 -48 -17 -3 -94 -64
-113 -89 -8 -11 -21 -31 -28 -45 -10 -22 -12 -16 -8 48 3 58 1 72 -10 68 -7
-3 -16 5 -21 17 -6 20 -8 18 -13 -13 -3 -19 -3 -39 1 -45 10 -16 18 -92 9
-102 -11 -11 -23 -73 -15 -73 4 0 19 9 33 21 22 17 28 18 37 7 16 -22 81 -68
94 -68 8 0 4 12 -10 31 -30 42 -29 107 2 150 50 71 179 80 179 13 0 -24 -1
-24 -30 -9 -43 22 -68 19 -101 -14 -35 -36 -39 -86 -9 -124 26 -33 62 -41 105
-23 34 15 35 14 35 -9 0 -18 -8 -26 -36 -35 -19 -7 -47 -9 -62 -6 -21 5 -23 4
-10 -4 21 -13 13 -47 -13 -55 -38 -12 -153 -13 -188 -1 -20 6 -48 10 -63 8
-39 -5 -37 -36 2 -52 29 -12 41 -30 19 -30 -21 0 2 -19 31 -25 27 -6 43 -25
21 -25 -5 0 -8 -19 -7 -42 0 -24 -2 -49 -4 -56 -3 -8 4 -19 15 -25 11 -7 22
-13 24 -15 3 -1 -6 -13 -19 -27 -18 -19 -20 -27 -11 -38 17 -21 -10 -39 -51
-35 l-33 3 -13 105 c-7 58 -17 109 -22 114 -6 6 -10 49 -10 96 0 51 -5 91 -11
97 -9 9 -7 11 8 7 13 -4 23 2 33 21 8 15 23 31 33 37 18 9 17 12 -17 44 -34
32 -51 39 -84 35 -8 -1 -19 2 -25 7 -7 5 -30 12 -52 16 -61 11 -76 17 -69 27
3 6 18 7 34 4 20 -4 29 -2 33 9 9 24 36 19 47 -8 10 -27 47 -43 63 -27 7 7 7
21 1 43 -10 33 -10 33 -80 36 l-71 3 -7 52 c-3 29 -6 76 -6 105 0 33 -4 51
-10 47 -10 -6 -15 35 -11 90 2 29 1 29 -13 10 -12 -15 -16 -17 -17 -5 -2 24
-17 -32 -18 -67 -1 -18 4 -33 9 -33 6 0 10 5 10 11 0 5 4 8 9 4 6 -3 8 -22 6
-43 -1 -20 -3 -44 -4 -52 -1 -10 -13 -17 -33 -18 -18 -1 -40 -5 -49 -8 -20 -6
-34 25 -19 40 13 13 13 39 0 31 -6 -3 -14 5 -20 19 -8 22 -15 25 -71 28 l-62
3 2 80 c1 57 -1 76 -9 65 -5 -8 -10 -46 -10 -83 l0 -69 -43 2 c-23 2 -70 2
-104 1 l-62 -1 -3 -57 -3 -57 -65 1 c-106 1 -193 12 -202 25 -4 7 -8 30 -8 51
l0 38 115 -2 c64 -1 120 2 125 7 5 5 5 25 0 47 -4 21 -11 136 -15 256 l-8 218
-96 7 c-53 3 -126 6 -163 6 l-68 0 0 -90 0 -90 44 0 c41 0 45 -2 51 -30 9 -41
0 -50 -51 -50 -40 0 -44 -2 -44 -25 0 -21 5 -25 33 -27 17 0 39 -1 48 0 19 2
31 -29 19 -48 -5 -8 -9 -7 -13 4 -8 19 -57 22 -75 4 -9 -9 -12 -113 -12 -406
l0 -395 83 8 c45 4 116 9 157 11 41 1 100 7 130 12 47 9 189 6 198 -3 7 -7
-38 -83 -52 -88 -8 -3 -22 1 -33 8 -10 8 -24 15 -30 15 -24 0 -13 -18 17 -32
32 -14 53 -58 50 -105 -4 -53 0 -71 17 -77 9 -4 21 -2 27 4 5 5 22 10 38 10
15 0 39 5 54 12 23 11 28 10 40 -6 26 -37 101 -23 89 15 -4 13 -1 19 9 19 10
0 13 -6 10 -15 -4 -9 0 -15 10 -15 18 0 20 10 16 99 -2 60 6 80 33 81 4 0 6
-33 3 -74 -2 -40 -1 -77 3 -82 9 -13 112 -73 211 -123 92 -46 115 -69 106
-107 -6 -23 -10 -24 -99 -25 -50 -1 -107 -3 -124 -5 -18 -1 -35 2 -39 7 -3 5
1 9 8 9 59 3 123 12 137 20 11 8 1 9 -39 6 -30 -3 -152 -10 -270 -15 -491 -23
-677 -31 -717 -31 -41 0 -43 -1 -43 -31 l0 -31 98 6 c53 3 147 10 207 16 61 5
137 11 170 13 l60 5 0 -112 0 -111 48 -3 47 -3 0 110 c0 77 4 112 13 118 6 4
41 8 77 9 59 2 67 -1 90 -25 40 -43 137 -111 159 -111 15 0 20 -9 26 -50 l7
-50 491 1 c369 0 486 3 467 11 -14 7 -44 20 -66 29 -42 19 -55 45 -46 91 5 24
19 26 167 32 72 3 121 3 110 0 -19 -6 -45 -31 -45 -45 0 -17 100 -31 241 -32
168 -2 193 4 185 47 -3 11 -7 33 -10 48 -6 25 -4 27 41 33 72 10 83 15 83 35
0 35 -34 62 -88 71 -54 8 -152 48 -152 62 0 4 24 8 53 8 28 0 70 0 92 1 30 0
36 2 22 9 -30 17 -18 30 13 14 16 -8 39 -15 50 -15 13 0 24 -8 27 -20 3 -11 9
-18 13 -15 9 6 1 44 -13 63 -6 8 -6 12 2 12 19 0 12 32 -9 37 -25 7 -25 12 -2
29 15 11 17 34 19 185 l2 173 -30 18 c-29 18 -51 55 -42 71 2 4 13 7 24 7 23
0 27 41 4 60 -27 22 -19 75 16 104 l31 26 -3 223 c-2 122 -6 240 -10 262 -11
66 -51 269 -55 284 -3 10 -8 10 -18 2 -7 -6 -16 -7 -21 -3 -4 4 -5 -6 -2 -23
3 -16 13 -79 22 -140 11 -68 24 -122 37 -143 15 -24 19 -42 14 -70 -3 -20 -6
-57 -7 -82 l0 -45 -11 38 c-7 27 -15 37 -25 33 -8 -3 -23 -6 -34 -6 -16 0 -19
-7 -19 -50 0 -43 -3 -50 -20 -50 -19 0 -20 7 -20 125 l0 125 41 0 c39 0 40 1
35 28 -3 15 -12 68 -21 117 -9 50 -20 107 -25 128 l-8 39 33 -6 c37 -7 44 4
37 55 -3 21 -11 28 -34 33 -17 3 -34 3 -39 0 -5 -3 -9 -1 -9 5 0 5 -12 16 -27
23 -16 7 -28 21 -28 29 0 27 -26 49 -57 49 -28 0 -30 -2 -25 -30z m-154 -240
c6 -47 14 -103 18 -125 3 -23 2 -37 -3 -32 -10 10 -52 245 -45 252 11 11 19
-14 30 -95z m-1929 -110 c0 -18 -7 -20 -60 -20 -46 0 -60 3 -60 14 0 10 14 16
43 19 23 2 50 4 60 5 11 1 17 -5 17 -18z m-2 -93 c3 -15 0 -16 -24 -7 -14 6
-36 7 -48 3 -17 -6 -12 -9 26 -17 27 -6 47 -15 45 -21 -1 -5 -9 -9 -17 -8 -8
2 -34 3 -57 4 -42 1 -43 3 -43 35 l0 33 57 -2 c46 -2 59 -6 61 -20z m1938 -21
c19 -20 18 -26 -6 -26 -13 0 -20 7 -20 20 0 24 6 25 26 6z m-46 -31 c0 -17
-27 -27 -36 -13 -4 7 -3 8 4 4 8 -5 12 1 12 14 0 12 5 18 10 15 6 -3 10 -12
10 -20z m-1917 -55 c15 0 27 -5 27 -10 0 -17 -31 -24 -52 -11 -13 8 -24 8 -38
1 -25 -13 -30 -13 -30 4 0 18 19 26 45 21 11 -3 32 -5 48 -5z m1902 0 c-3 -5
-10 -10 -16 -10 -5 0 -9 5 -9 10 0 6 7 10 16 10 8 0 12 -4 9 -10z m461 -235
c2 -26 -10 -33 -21 -15 -4 6 -1 17 5 25 16 19 15 19 16 -10z m-446 -53 c0 -13
-12 -22 -22 -16 -10 6 -1 24 13 24 5 0 9 -4 9 -8z m138 -3 c-2 -6 -8 -10 -13
-10 -5 0 -11 4 -13 10 -2 6 4 11 13 11 9 0 15 -5 13 -11z m-197 -52 c-8 -8
-11 -7 -11 4 0 20 13 34 18 19 3 -7 -1 -17 -7 -23z m507 6 c-3 -28 -4 -28 -98
-35 -136 -11 -372 -6 -377 8 -5 15 120 24 310 21 135 -2 147 -1 147 15 0 10 5
18 11 18 6 0 9 -12 7 -27z m-2153 7 c3 -5 -1 -10 -9 -10 -9 0 -16 5 -16 10 0
6 4 10 9 10 6 0 13 -4 16 -10z m1099 -12 c4 4 12 -1 17 -11 6 -9 14 -15 20
-12 5 4 9 -1 9 -10 0 -15 -4 -14 -34 4 -18 12 -42 21 -52 21 -16 0 -16 2 -4
10 9 5 19 5 26 0 6 -6 14 -7 18 -2z m-710 -60 c3 -13 7 -47 10 -75 l5 -53 -49
0 -50 0 0 38 c0 20 3 54 6 75 6 34 9 37 40 37 27 0 35 -5 38 -22z m1276 -38
c0 -33 -2 -60 -5 -60 -3 0 -14 5 -24 12 -16 9 -17 14 -6 25 7 7 12 29 11 48
-2 24 1 35 10 35 10 0 14 -16 14 -60z m-1730 -13 c0 -35 -3 -66 -6 -69 -12
-12 -44 5 -44 24 0 11 -8 22 -19 25 -22 6 -35 64 -17 75 6 4 28 8 49 8 l37 0
0 -63z m-127 46 c-7 -2 -21 -2 -30 0 -10 3 -4 5 12 5 17 0 24 -2 18 -5z m1792
-38 c0 -21 -31 -33 -46 -18 -5 5 -7 17 -3 27 9 24 49 17 49 -9z m-1605 -15
c12 -8 11 -10 -7 -10 -13 0 -23 5 -23 10 0 13 11 13 30 0z m1983 -9 c17 -6 16
-8 -7 -19 -14 -6 -26 -8 -26 -4 0 4 -25 5 -55 4 -34 -3 -55 0 -55 7 0 5 24 12
53 14 28 2 57 4 62 4 6 1 18 -2 28 -6z m-225 -47 c14 -10 22 -25 22 -45 0 -32
15 -69 29 -69 5 0 6 11 3 25 -11 62 51 121 103 97 14 -7 25 -8 25 -3 0 5 9 7
20 4 17 -5 20 -14 20 -64 0 -54 2 -59 23 -60 21 -2 21 -2 1 -6 -17 -3 -23 -14
-27 -46 -7 -49 -35 -77 -79 -77 -28 0 -78 38 -78 60 0 15 36 12 50 -5 17 -21
47 -19 60 4 17 32 13 43 -11 30 -12 -6 -31 -8 -43 -4 -51 16 -96 22 -96 13 0
-6 -15 -7 -36 -4 -45 9 -94 -1 -94 -20 0 -20 -13 -17 -27 5 -8 13 -19 17 -37
14 l-26 -5 0 81 c0 74 2 81 20 81 15 0 20 -7 20 -29 0 -16 7 -34 15 -41 8 -7
15 -19 15 -28 0 -8 3 -13 6 -9 4 3 1 21 -5 39 -8 22 -8 34 -1 36 5 2 10 11 10
19 0 11 7 14 24 11 14 -3 31 -1 38 3 19 12 31 11 56 -7z m-1214 -75 c-3 -84
-5 -99 -13 -99 -10 0 -25 116 -16 131 13 20 30 2 29 -32z m76 -29 c0 -16 -4
-31 -9 -34 -9 -6 -22 53 -14 67 9 15 23 -5 23 -33z m1477 -17 c-3 -2 -20 -3
-39 0 l-33 3 33 8 c18 5 33 15 33 25 1 9 4 5 6 -7 3 -13 2 -26 0 -29z m-1742
22 c-43 -13 -51 -12 -40 4 3 6 23 11 43 10 l37 -1 -40 -13z m16 -54 c-6 -10
-18 -24 -27 -32 -15 -13 -16 -12 -9 11 4 14 12 31 17 37 15 19 30 5 19 -16z
m106 7 c-3 -8 -6 -5 -6 6 -1 11 2 17 5 13 3 -3 4 -12 1 -19z m-315 -70 c-6 -6
-7 0 -4 19 5 21 7 23 10 9 2 -10 0 -22 -6 -28z m1253 32 c3 -5 1 -10 -4 -10
-6 0 -11 5 -11 10 0 6 2 10 4 10 3 0 8 -4 11 -10z m233 -8 c18 18 25 3 24 -48
0 -51 -20 -81 -46 -71 -14 6 -14 10 -4 27 10 16 10 24 0 40 -6 11 -12 25 -12
31 0 7 -8 18 -17 26 -14 11 -11 11 13 -1 23 -11 34 -12 42 -4z m-1228 -22 c0
-5 -4 -10 -10 -10 -5 0 -10 5 -10 10 0 6 5 10 10 10 6 0 10 -4 10 -10z m-180
-98 c0 -30 10 -32 47 -6 41 28 81 31 90 8 9 -23 -35 -55 -57 -42 -11 7 -27 5
-54 -6 -21 -9 -47 -16 -58 -16 -10 0 -30 -8 -45 -17 l-26 -17 7 39 c12 62 23
75 61 75 27 0 35 -4 35 -18z m1250 -1 c0 -11 -4 -23 -10 -26 -6 -4 -10 5 -10
19 0 14 5 26 10 26 6 0 10 -9 10 -19z m179 -71 c-1 -33 -5 -60 -10 -60 -5 0
-9 -12 -9 -27 0 -14 -3 -23 -7 -20 -11 11 -13 60 -2 73 5 6 7 19 3 28 -3 9 -1
16 5 16 7 0 9 9 5 25 -4 15 -2 25 5 25 6 0 10 -23 10 -60z m-54 39 c11 -17 -1
-21 -15 -4 -8 9 -8 15 -2 15 6 0 14 -5 17 -11z m-95 -44 c6 4 10 -14 10 -48 0
-38 -4 -57 -14 -60 -11 -4 -13 3 -9 31 4 29 0 41 -16 56 -12 11 -21 29 -21 40
1 21 1 20 20 -2 11 -13 24 -21 30 -17z m-440 -40 c0 -14 -5 -25 -11 -25 -5 0
-7 5 -4 10 4 6 1 17 -5 25 -10 12 -9 15 4 15 10 0 16 -9 16 -25z m-929 -8 c-1
-12 -15 -9 -19 4 -3 6 1 10 8 8 6 -3 11 -8 11 -12z m705 -8 c3 -5 -6 -9 -20
-9 -24 0 -41 12 -30 23 7 7 43 -3 50 -14z m149 -21 c6 -13 20 -27 32 -33 12
-5 23 -19 26 -31 3 -19 -2 -23 -36 -28 -22 -4 -42 -4 -45 -2 -4 5 -6 69 -3
104 2 19 15 14 26 -10z m1145 -93 c0 -2 -15 -12 -32 -20 l-33 -16 24 21 c22
19 41 26 41 15z m-480 -193 c0 -13 -268 -34 -288 -23 -26 15 -1 20 113 24 55
1 117 4 138 5 20 1 37 -2 37 -6z m-1213 -28 c-3 -3 -12 -4 -19 -1 -8 3 -5 6 6
6 11 1 17 -2 13 -5z"/>
<path d="M2163 997 c0 -8 6 -14 14 -14 9 0 10 4 2 14 -6 7 -12 13 -14 13 -1 0
-2 -6 -2 -13z"/>
<path d="M2327 999 c-10 -6 -17 -22 -17 -38 0 -25 3 -28 34 -27 42 2 50 8 41
35 -9 28 -36 42 -58 30z"/>
<path d="M818 2087 c-6 -51 -1 -57 43 -57 l40 0 -3 43 c-3 40 -4 42 -39 45
-35 3 -37 2 -41 -31z"/>
<path d="M2688 2084 c-3 -27 0 -38 15 -46 23 -12 34 -2 38 32 4 32 -7 50 -30
50 -14 0 -20 -9 -23 -36z"/>
<path d="M2080 2101 c0 -5 5 -13 10 -16 6 -3 10 -2 10 4 0 5 -4 13 -10 16 -5
3 -10 2 -10 -4z"/>
<path d="M3017 2098 c-2 -7 -17 -13 -32 -13 -25 0 -30 -5 -37 -38 -5 -24 -4
-46 3 -58 6 -11 8 -32 5 -47 -3 -15 -6 -101 -8 -191 -2 -133 0 -165 11 -169
10 -3 12 0 8 11 -7 20 18 41 39 33 10 -4 14 -13 11 -26 -5 -19 0 -20 129 -20
78 0 134 -4 134 -9 0 -10 -482 -6 -527 4 -12 3 -33 1 -47 -5 -33 -12 -35 -34
-2 -26 34 8 56 -2 56 -27 0 -20 0 -20 24 2 48 45 140 21 153 -39 9 -48 33 -37
33 15 0 38 3 45 20 45 17 0 20 -7 20 -45 0 -38 3 -45 20 -45 11 0 20 7 20 15
0 76 114 112 149 46 15 -27 14 -61 -1 -61 -8 0 -5 -7 6 -15 28 -21 33 -19 28
14 -2 16 1 39 8 51 15 28 67 50 103 43 22 -4 27 -11 27 -34 0 -29 0 -29 -25
-13 -24 16 -27 16 -45 -1 -21 -19 -27 -60 -10 -70 6 -3 10 3 10 14 0 27 20 27
27 1 4 -15 11 -19 24 -15 15 5 19 1 19 -19 0 -14 -4 -26 -10 -26 -5 0 -10 -17
-10 -37 0 -40 -7 -41 -13 -3 -4 27 -28 37 -90 39 -56 1 -75 -12 -75 -55 0 -20
-4 -40 -9 -45 -10 -10 -11 -5 -14 46 -1 14 -11 32 -22 40 -23 16 -82 21 -73 6
3 -4 -6 -6 -19 -3 -23 4 -25 2 -25 -37 0 -34 -3 -41 -20 -41 -16 0 -20 7 -21
38 -1 20 -1 43 0 51 2 7 -4 11 -11 8 -7 -2 -12 -11 -10 -18 2 -9 -2 -8 -15 4
-16 14 -24 15 -51 5 -25 -10 -39 -9 -67 1 -19 7 -39 9 -45 6 -5 -3 -10 -1 -10
5 0 8 -7 9 -17 5 -10 -4 -25 -8 -33 -9 -21 -4 -28 -38 -29 -149 -1 -87 1 -99
17 -104 10 -2 23 -13 30 -23 10 -16 8 -21 -11 -31 -12 -7 -24 -13 -27 -13 -11
-2 4 -32 26 -53 35 -33 33 -87 -5 -122 l-30 -28 -3 -247 c-2 -182 0 -242 8
-231 8 10 29 15 66 15 39 0 60 5 69 16 16 19 82 13 130 -12 17 -8 33 -13 36
-10 25 25 -122 84 -220 88 -54 2 -92 17 -50 19 48 3 182 -1 214 -7 24 -3 40
-1 44 7 9 14 8 363 -2 399 -11 44 -4 154 11 179 14 22 25 10 19 -20 -6 -30 -5
-31 16 -19 50 26 121 -21 121 -81 0 -15 -11 -41 -24 -56 -20 -23 -32 -28 -70
-28 l-46 0 0 -51 c0 -56 11 -67 83 -79 33 -5 46 -1 100 35 34 22 88 48 120 57
32 8 60 20 63 25 3 4 7 44 8 88 4 111 -11 121 -182 125 -53 2 -99 8 -105 14
-6 6 -26 11 -44 11 -22 0 -33 5 -33 14 0 11 24 15 108 18 59 2 115 0 125 -5
14 -7 23 -3 34 13 8 12 21 19 29 16 9 -4 19 4 26 22 l12 27 4 -29 c3 -28 5
-28 50 -24 26 3 72 2 102 -2 l55 -7 -78 -2 c-59 -1 -79 -5 -83 -16 -4 -8 -12
-15 -20 -15 -22 0 -16 -38 7 -50 19 -11 20 -19 18 -95 -2 -46 0 -87 4 -92 9
-8 28 -12 82 -14 50 -2 123 -27 151 -51 11 -10 26 -18 34 -18 8 0 24 -9 36
-21 14 -13 39 -22 66 -24 152 -10 228 -31 122 -34 -30 0 -53 3 -50 7 8 13 -72
12 -83 -2 -8 -9 1 -25 31 -62 43 -52 88 -137 88 -167 0 -10 7 -25 15 -33 8 -9
15 -33 15 -55 l0 -39 49 0 c28 0 53 5 56 10 4 6 13 7 22 2 8 -5 46 -4 88 3 63
10 87 9 159 -6 47 -9 102 -23 123 -30 21 -6 53 -11 72 -11 19 1 42 -4 50 -12
9 -7 31 -16 49 -19 l32 -7 0 143 0 142 -276 34 c-302 37 -347 46 -340 70 2 9
7 81 11 161 12 296 15 358 20 484 3 70 8 133 11 138 4 6 7 32 7 59 0 27 3 52
7 54 5 3 6 14 3 25 -4 16 -10 19 -27 13 -11 -4 -46 -7 -76 -8 -52 0 -55 -1
-55 -25 0 -14 3 -30 8 -37 5 -7 -5 -26 -28 -52 l-36 -40 27 -3 c38 -4 39 -20
5 -38 -16 -8 -65 -40 -108 -69 -46 -33 -87 -54 -100 -53 -15 1 -23 -4 -23 -13
0 -20 -17 -19 -28 1 -15 27 -3 48 38 67 21 10 68 41 104 69 l66 50 -30 41
c-25 34 -41 44 -117 69 -48 16 -105 29 -125 30 -24 0 -39 6 -43 16 -9 23 10
35 50 34 19 -1 35 3 35 8 0 6 8 10 17 10 13 0 14 -3 5 -12 -19 -19 -14 -28 14
-28 14 0 34 -5 45 -11 12 -6 28 -8 37 -4 13 5 6 12 -28 28 -33 16 -46 29 -48
47 -5 30 -21 52 -34 44 -5 -3 -4 -12 3 -20 18 -21 2 -17 -26 8 -19 16 -22 24
-13 30 10 6 10 8 1 8 -7 0 -13 8 -13 17 0 15 -2 14 -15 -3 -14 -18 -14 -18 -8
4 8 33 -5 27 -20 -10 -8 -18 -22 -40 -32 -48 -17 -14 -18 -10 -13 73 2 48 2
90 -2 92 -3 2 -28 1 -54 -3 l-48 -7 -4 -84 c-2 -47 -8 -87 -12 -90 -5 -3 -11
-14 -15 -23 -3 -10 -11 -18 -17 -18 -8 0 -11 52 -9 168 l2 167 -75 5 c-41 3
-82 11 -90 18 -12 9 -23 10 -42 2 -38 -14 -38 -14 -35 28 3 55 1 62 -20 62
-11 0 -21 -6 -24 -12z m-10 -60 c-3 -8 -6 -5 -6 6 -1 11 2 17 5 13 3 -3 4 -12
1 -19z m558 -347 c-3 -2 -11 2 -19 8 -8 7 -24 10 -36 6 -11 -4 -20 -2 -20 4 0
6 7 11 15 11 8 0 15 5 15 11 0 6 11 1 24 -12 14 -13 23 -26 21 -28z m-82 -65
c-4 -16 -14 -31 -24 -33 -26 -7 -26 -53 0 -53 14 0 18 -5 14 -19 -3 -11 -11
-22 -19 -25 -10 -4 -14 -22 -14 -61 0 -47 -3 -55 -19 -55 -23 0 -33 32 -24 83
4 24 2 37 -6 37 -6 0 -11 9 -11 20 0 11 5 20 10 20 6 0 10 13 10 29 0 19 6 30
19 34 11 3 23 21 32 51 13 44 14 45 25 23 7 -12 10 -35 7 -51z m-133 -47 c0
-16 -12 -18 -59 -10 -2 1 2 7 8 15 6 8 11 18 10 22 -4 23 3 26 21 9 11 -10 20
-26 20 -36z m217 -44 c12 -8 23 -11 25 -5 2 6 14 6 33 1 l30 -9 -30 -1 c-16
-1 -39 -8 -49 -16 -14 -11 -23 -12 -33 -4 -9 8 -13 8 -13 0 0 -6 13 -17 29
-26 52 -26 49 -88 -4 -101 -25 -6 -75 17 -75 35 0 14 32 23 44 11 14 -14 26
-13 26 3 0 6 -14 20 -30 29 -49 28 -36 89 20 97 3 1 15 -6 27 -14z m127 -36
c-3 -5 -16 -9 -30 -9 -20 0 -23 2 -12 13 13 15 51 11 42 -4z m-69 1 c3 -5 -1
-10 -10 -10 -9 0 -13 5 -10 10 3 6 8 10 10 10 2 0 7 -4 10 -10z m-868 -156 c2
-13 1 -15 -4 -4 -3 8 -11 19 -17 23 -7 6 -6 7 4 4 8 -2 16 -12 17 -23z m454
-53 c2 -32 -1 -56 -7 -58 -7 -2 -10 11 -9 32 2 19 -1 37 -5 40 -4 2 -5 16 -2
30 7 41 20 16 23 -44z m-91 55 c0 -2 2 -11 5 -19 4 -9 0 -13 -12 -12 -26 1
-44 15 -38 26 6 9 45 13 45 5z m-160 -15 c0 -6 -4 -13 -10 -16 -5 -3 -10 1
-10 9 0 9 5 16 10 16 6 0 10 -4 10 -9z m568 -13 c-2 -7 -20 -21 -39 -30 -21
-12 -35 -26 -36 -40 -7 -60 -10 -73 -19 -73 -5 0 -10 18 -12 40 -2 22 -8 44
-13 50 -18 18 -10 53 14 58 51 10 109 7 105 -5z m372 -2 c0 -3 -4 -8 -10 -11
-5 -3 -10 -1 -10 4 0 6 5 11 10 11 6 0 10 -2 10 -4z m-550 -80 c0 -12 -5 -16
-15 -12 -8 3 -19 -2 -24 -12 -9 -15 -10 -14 -11 6 0 12 -6 22 -14 22 -8 0 -17
4 -20 8 -3 5 15 8 39 8 37 -1 45 -4 45 -20z m570 -66 c0 -12 -17 -12 -45 0
-17 7 -15 9 13 9 17 1 32 -3 32 -9z m-320 -21 c0 -5 -7 -9 -15 -9 -15 0 -20
12 -9 23 8 8 24 -1 24 -14z m397 -35 c-3 -3 -12 -4 -19 -1 -8 3 -5 6 6 6 11 1
17 -2 13 -5z m-526 -67 c-1 -4 -1 -23 -1 -42 0 -28 -4 -35 -20 -35 -23 0 -28
37 -9 71 10 19 31 23 30 6z m-558 -25 c10 -10 20 -35 24 -55 5 -31 1 -40 -25
-67 -41 -40 -83 -41 -123 -1 -63 63 -12 160 76 146 16 -3 38 -14 48 -23z m385
6 c7 -7 12 -36 12 -79 0 -62 -2 -69 -20 -69 -18 0 -20 7 -20 54 0 62 -18 87
-44 61 -10 -11 -16 -34 -16 -66 0 -42 -3 -49 -20 -49 -18 0 -20 7 -20 81 0 81
0 81 24 77 14 -3 31 -1 38 3 14 9 45 3 66 -13z m402 12 c0 -5 -5 -10 -11 -10
-5 0 -7 5 -4 10 3 6 8 10 11 10 2 0 4 -4 4 -10z m-350 -30 c0 -5 -4 -10 -10
-10 -5 0 -10 5 -10 10 0 6 5 10 10 10 6 0 10 -4 10 -10z m187 -102 c-3 -7 -5
-2 -5 12 0 14 2 19 5 13 2 -7 2 -19 0 -25z m419 -456 c-11 -10 -15 4 -8 28 l7
25 3 -23 c2 -13 1 -26 -2 -30z m-1201 -12 c15 -7 10 -9 -22 -9 -24 -1 -43 4
-43 9 0 12 37 12 65 0z"/>
<path d="M2828 999 c-28 -16 -23 -67 7 -81 19 -8 28 -8 40 2 22 18 19 67 -4
80 -23 12 -22 12 -43 -1z"/>
<path d="M3108 2103 c7 -3 16 -2 19 1 4 3 -2 6 -13 5 -11 0 -14 -3 -6 -6z"/>
<path d="M3170 2100 c0 -5 9 -10 19 -10 11 0 23 5 26 10 4 6 -5 10 -19 10 -14
0 -26 -4 -26 -10z"/>
<path d="M1840 2025 c0 -45 28 -63 60 -37 18 15 20 21 11 45 -8 21 -17 27 -41
27 -28 0 -30 -3 -30 -35z"/>
<path d="M2770 2036 c0 -9 -9 -21 -20 -28 -11 -7 -20 -22 -20 -33 0 -28 48
-47 112 -43 59 3 67 14 48 64 l-12 29 -14 -28 c-19 -36 -38 -30 -44 14 -4 26
-10 35 -27 37 -16 2 -23 -2 -23 -12z"/>
<path d="M698 2028 c-2 -7 -4 -29 -4 -48 1 -35 2 -35 49 -38 l47 -3 0 45 c0
44 -1 46 -29 46 -16 0 -36 3 -44 6 -8 3 -16 -1 -19 -8z"/>
<path d="M2607 2013 c-4 -3 -7 -19 -7 -35 0 -22 7 -31 36 -43 46 -19 44 -20
44 10 0 49 -48 94 -73 68z"/>
<path d="M4400 1999 c-99 -11 -230 -27 -255 -32 -11 -3 -35 -5 -52 -6 -32 -1
-33 -3 -33 -42 0 -22 -5 -49 -10 -59 -16 -29 -26 -230 -12 -230 7 0 12 18 12
45 0 25 6 61 14 79 8 18 12 44 9 57 -3 19 3 30 28 48 31 23 31 25 13 38 -19
14 -19 15 1 29 14 11 32 13 63 9 25 -4 42 -2 42 3 0 6 25 9 59 6 45 -3 64 0
75 12 12 11 20 12 35 4 11 -5 35 -10 53 -10 45 0 67 -14 43 -27 -15 -9 -13
-11 12 -22 15 -6 44 -9 63 -7 19 3 38 5 43 5 16 2 6 31 -11 31 -24 0 -42 19
-42 46 0 36 -13 38 -150 23z"/>
<path d="M615 1940 c-3 -5 1 -10 9 -10 9 0 16 5 16 10 0 6 -4 10 -9 10 -6 0
-13 -4 -16 -10z"/>
<path d="M4260 1899 c0 -14 20 -20 36 -11 14 8 12 10 -10 14 -14 3 -26 2 -26
-3z"/>
<path d="M4330 1890 c9 -4 31 -5 50 0 34 8 33 8 -15 9 -34 0 -45 -3 -35 -9z"/>
<path d="M3485 1880 c-3 -5 -1 -10 4 -10 6 0 11 5 11 10 0 6 -2 10 -4 10 -3 0
-8 -4 -11 -10z"/>
<path d="M4155 1881 c-20 -8 -20 -8 1 -15 28 -9 61 3 42 15 -15 10 -17 10 -43
0z"/>
<path d="M2750 1867 c0 -7 4 -17 10 -23 6 -6 6 -22 0 -44 -14 -49 -12 -62 8
-58 14 3 16 12 13 63 -1 33 -5 63 -8 68 -7 12 -23 8 -23 -6z"/>
<path d="M3470 1831 c0 -6 5 -13 10 -16 6 -3 10 1 10 9 0 9 -4 16 -10 16 -5 0
-10 -4 -10 -9z"/>
<path d="M705 1812 c-34 -20 -88 -72 -82 -79 3 -2 19 3 36 11 18 10 55 16 94
16 56 0 67 3 81 23 14 21 16 21 29 5 17 -21 27 -14 27 19 0 20 -4 23 -27 18
-63 -14 -70 -14 -76 -8 -14 13 -54 11 -82 -5z"/>
<path d="M531 1750 c-1 -3 -4 -81 -7 -175 -2 -93 -7 -182 -9 -197 -2 -16 -1
-28 4 -28 10 0 25 303 19 365 -3 22 -6 38 -7 35z"/>
<path d="M3786 1714 c-9 -24 -7 -54 4 -54 6 0 10 16 10 35 0 38 -4 44 -14 19z"/>
<path d="M2814 1712 c-71 -3 -72 -3 -78 -34 -3 -17 -6 -43 -6 -59 l0 -29 84 0
c77 0 111 9 87 24 -5 3 -7 26 -6 51 2 25 0 46 -3 47 -4 2 -39 2 -78 0z"/>
<path d="M571 1694 c0 -11 3 -14 6 -6 3 7 2 16 -1 19 -3 4 -6 -2 -5 -13z"/>
<path d="M757 1697 c-3 -9 -16 -12 -34 -10 -45 6 -61 -28 -65 -133 l-3 -88
103 -1 c88 -1 101 1 98 15 -3 8 -6 53 -8 100 l-3 85 27 3 c21 3 27 -2 30 -20
4 -23 5 -22 16 4 6 15 9 35 6 43 -6 16 -34 21 -34 7 0 -10 -104 -7 -119 2 -5
3 -11 0 -14 -7z"/>
<path d="M635 1670 c-3 -5 -1 -10 4 -10 6 0 11 5 11 10 0 6 -2 10 -4 10 -3 0
-8 -4 -11 -10z"/>
<path d="M1888 1650 c-3 -16 -1 -30 4 -30 4 0 8 14 8 30 0 17 -2 30 -4 30 -2
0 -6 -13 -8 -30z"/>
<path d="M1981 1664 c0 -11 3 -14 6 -6 3 7 2 16 -1 19 -3 4 -6 -2 -5 -13z"/>
<path d="M3780 1630 c0 -11 5 -20 10 -20 6 0 10 -9 10 -20 0 -21 19 -25 55
-11 19 8 19 8 -3 20 -12 7 -20 16 -17 21 6 9 -25 30 -44 30 -6 0 -11 -9 -11
-20z"/>
<path d="M3740 1629 c0 -5 5 -7 10 -4 6 3 10 8 10 11 0 2 -4 4 -10 4 -5 0 -10
-5 -10 -11z"/>
<path d="M1937 1624 c-8 -8 3 -34 14 -34 11 0 12 27 0 34 -4 3 -11 3 -14 0z"/>
<path d="M1415 1610 c-3 -5 -3 -10 1 -10 3 0 -1 -12 -11 -26 -21 -33 -14 -40
23 -23 27 12 29 15 20 41 -10 29 -22 35 -33 18z"/>
<path d="M2007 1613 c-11 -10 -8 -83 3 -83 6 0 10 20 10 45 0 46 -2 50 -13 38z"/>
<path d="M1824 1572 c-7 -11 -9 -33 -4 -57 l7 -40 7 36 c4 20 6 46 4 58 -3 20
-4 21 -14 3z"/>
<path d="M2520 1555 c0 -27 4 -35 18 -35 26 0 40 18 34 46 -3 17 -11 24 -28
24 -21 0 -24 -5 -24 -35z"/>
<path d="M1746 1557 c-16 -11 -16 -15 -3 -25 12 -10 16 -8 20 10 8 28 5 31
-17 15z"/>
<path d="M1962 1512 c-2 -65 11 -84 22 -32 3 17 0 45 -7 63 -13 31 -13 31 -15
-31z"/>
<path d="M2355 1560 c-4 -6 -11 -8 -16 -5 -5 4 -9 -1 -9 -10 0 -9 5 -13 10
-10 6 4 17 1 25 -5 12 -10 15 -9 15 8 0 24 -16 37 -25 22z"/>
<path d="M611 1524 c0 -11 3 -14 6 -6 3 7 2 16 -1 19 -3 4 -6 -2 -5 -13z"/>
<path d="M370 1501 c-16 -38 -7 -51 36 -51 39 0 42 10 13 51 -26 36 -34 36
-49 0z"/>
<path d="M891 1504 c0 -11 3 -14 6 -6 3 7 2 16 -1 19 -3 4 -6 -2 -5 -13z"/>
<path d="M1260 1495 c-10 -13 -9 -15 9 -15 11 0 21 4 21 9 0 18 -18 21 -30 6z"/>
<path d="M1451 1501 c-9 -6 -10 -11 -2 -15 17 -11 13 -29 -5 -22 -12 4 -15 0
-12 -17 2 -14 11 -23 25 -25 18 -3 21 0 17 13 -4 9 1 24 11 35 16 17 16 19 -2
29 -11 5 -25 6 -32 2z"/>
<path d="M2245 1493 c3 -10 9 -30 12 -45 7 -35 21 -36 29 -3 4 18 1 32 -11 45
-22 25 -39 26 -30 3z"/>
<path d="M2828 1499 c-19 -10 -25 -63 -9 -73 5 -3 23 -3 40 0 26 5 31 11 31
35 0 18 -7 32 -19 39 -23 12 -22 12 -43 -1z"/>
<path d="M3113 1495 c-17 -13 -16 -14 15 -15 33 0 43 13 18 23 -8 3 -22 -1
-33 -8z"/>
<path d="M2070 1490 c0 -5 5 -10 10 -10 6 0 10 5 10 10 0 6 -4 10 -10 10 -5 0
-10 -4 -10 -10z"/>
<path d="M2696 1485 c-3 -8 -1 -15 4 -15 6 0 10 7 10 15 0 8 -2 15 -4 15 -2 0
-6 -7 -10 -15z"/>
<path d="M2727 1488 c4 -7 6 -21 5 -31 -4 -20 16 -49 28 -42 10 6 -1 57 -16
72 -16 17 -28 17 -17 1z"/>
<path d="M887 1473 c-4 -3 -7 -11 -7 -17 0 -6 5 -5 12 2 6 6 9 14 7 17 -3 3
-9 2 -12 -2z"/>
<path d="M1659 1463 c-13 -16 -12 -17 4 -4 9 7 17 15 17 17 0 8 -8 3 -21 -13z"/>
<path d="M1043 1420 c0 -25 2 -35 4 -22 2 12 2 32 0 45 -2 12 -4 2 -4 -23z"/>
<path d="M1250 1441 c0 -20 28 -33 49 -21 32 16 25 30 -14 30 -19 0 -35 -4
-35 -9z"/>
<path d="M2070 1442 c0 -16 13 -22 26 -11 9 7 19 7 33 -1 17 -9 20 -8 15 5 -6
16 -74 22 -74 7z"/>
<path d="M2690 1414 c0 -8 5 -12 10 -9 6 4 8 11 5 16 -9 14 -15 11 -15 -7z"/>
<path d="M399 1374 c-9 -11 -8 -15 5 -20 19 -7 46 1 46 15 0 15 -39 20 -51 5z"/>
<path d="M1985 1367 c-11 -16 -12 -24 -3 -34 6 -8 14 -10 17 -5 3 5 14 11 24
15 23 9 22 33 -3 40 -13 3 -25 -2 -35 -16z"/>
<path d="M717 1366 c-8 -20 2 -25 36 -19 28 5 38 23 13 23 -8 0 -21 3 -29 6
-8 3 -17 -2 -20 -10z"/>
<path d="M1945 1367 c-4 -10 -5 -21 -1 -24 10 -10 18 4 13 24 -4 17 -4 17 -12
0z"/>
<path d="M660 1360 c20 -13 33 -13 25 0 -3 6 -14 10 -23 10 -15 0 -15 -2 -2
-10z"/>
<path d="M2170 1340 c0 -5 5 -10 11 -10 5 0 7 5 4 10 -3 6 -8 10 -11 10 -2 0
-4 -4 -4 -10z"/>
<path d="M1080 1308 c0 -11 28 -10 35 1 3 6 -4 9 -15 8 -11 -1 -20 -5 -20 -9z"/>
<path d="M1425 1270 c2 -31 9 -56 16 -59 9 -3 10 7 5 39 -11 69 -25 83 -21 20z"/>
<path d="M1597 1313 c-7 -11 10 -40 18 -31 4 4 3 14 -3 24 -5 9 -12 12 -15 7z"/>
<path d="M807 1294 c-4 -4 -7 -16 -7 -26 0 -13 7 -18 26 -18 21 0 25 4 22 22
-3 23 -27 35 -41 22z"/>
<path d="M1340 1287 c0 -9 -5 -17 -11 -17 -6 0 -9 -13 -8 -28 2 -16 -5 -41
-15 -56 -28 -43 -9 -44 29 -2 28 32 33 44 28 70 -6 35 -23 59 -23 33z m20 -57
c0 -5 -4 -10 -10 -10 -5 0 -10 5 -10 10 0 6 5 10 10 10 6 0 10 -4 10 -10z"/>
<path d="M1950 1259 c0 -5 5 -7 10 -4 6 3 10 8 10 11 0 2 -4 4 -10 4 -5 0 -10
-5 -10 -11z"/>
<path d="M135 1250 c3 -5 8 -10 11 -10 2 0 4 5 4 10 0 6 -5 10 -11 10 -5 0 -7
-4 -4 -10z"/>
<path d="M1053 1253 c9 -2 23 -2 30 0 6 3 -1 5 -18 5 -16 0 -22 -2 -12 -5z"/>
<path d="M1274 1225 c-9 -37 0 -40 13 -5 6 17 7 30 2 30 -5 0 -11 -11 -15 -25z"/>
<path d="M982 1194 c2 -28 8 -49 16 -52 10 -3 12 8 10 44 -2 28 -8 49 -16 52
-10 3 -12 -8 -10 -44z"/>
<path d="M1676 1214 c-4 -10 -1 -14 6 -12 15 5 23 28 10 28 -5 0 -13 -7 -16
-16z"/>
<path d="M1875 1119 c-12 -19 5 -23 22 -6 16 16 16 17 1 17 -9 0 -20 -5 -23
-11z"/>
<path d="M1161 1044 c0 -11 3 -14 6 -6 3 7 2 16 -1 19 -3 4 -6 -2 -5 -13z"/>
<path d="M1925 1050 c-3 -5 -1 -10 4 -10 6 0 11 5 11 10 0 6 -2 10 -4 10 -3 0
-8 -4 -11 -10z"/>
<path d="M1602 1003 c-31 -12 -37 -73 -7 -73 7 0 15 -5 17 -12 6 -18 28 1 29
25 0 21 1 21 9 2 7 -17 9 -15 9 12 1 22 -5 36 -18 43 -11 5 -21 10 -23 9 -2 0
-9 -3 -16 -6z"/>
<path d="M3028 999 c-28 -16 -23 -67 7 -81 19 -8 28 -8 40 2 22 18 19 67 -4
80 -23 12 -22 12 -43 -1z"/>
<path d="M1900 955 c7 -9 15 -13 17 -11 7 7 -7 26 -19 26 -6 0 -6 -6 2 -15z"/>
<path d="M2687 953 c-4 -3 -7 -11 -7 -17 0 -6 5 -5 12 2 6 6 9 14 7 17 -3 3
-9 2 -12 -2z"/>
<path d="M1353 866 c-23 -24 -30 -46 -14 -46 12 0 27 21 34 48 6 27 7 27 -20
-2z"/>
<path d="M1545 870 c-4 -6 -3 -16 3 -22 6 -6 12 -6 17 2 4 6 3 16 -3 22 -6 6
-12 6 -17 -2z"/>
<path d="M3015 706 c-12 -18 -15 -47 -13 -122 l3 -99 28 59 c15 32 27 63 27
68 0 9 22 65 40 98 6 13 0 16 -31 17 -31 2 -42 -3 -54 -21z"/>
<path d="M1101 704 c0 -11 3 -14 6 -6 3 7 2 16 -1 19 -3 4 -6 -2 -5 -13z"/>
<path d="M270 659 c-25 -11 -53 -25 -62 -30 -10 -5 -19 -5 -23 1 -3 6 -21 10
-39 10 l-32 0 10 -58 c11 -68 5 -92 -24 -92 -24 0 -26 -13 -4 -31 13 -11 21
-11 44 3 16 9 38 14 49 11 12 -3 28 0 36 7 13 11 15 8 13 -21 -3 -28 1 -35 19
-37 12 -2 27 5 35 17 8 12 18 18 22 13 4 -4 38 -8 76 -9 88 -2 105 10 101 75
-1 18 -7 22 -31 22 -20 0 -30 5 -30 15 0 8 5 15 10 15 6 0 10 7 10 15 0 21
-37 19 -49 -2 -7 -13 -23 -18 -58 -19 -26 0 -60 -4 -74 -8 -21 -6 -27 -3 -39
21 -8 15 -16 30 -17 33 -2 3 7 6 20 7 12 1 35 4 50 5 27 3 47 21 47 46 0 16
-6 15 -60 -9z"/>
<path d="M371 403 c-33 -4 -64 -30 -55 -44 7 -11 63 -19 94 -12 26 5 59 38 48
48 -7 8 -55 12 -87 8z"/>
<path d="M2878 336 c-48 -17 -92 -36 -99 -43 -18 -18 -3 -43 25 -43 18 0 24 4
20 15 -4 10 3 18 21 25 39 15 46 13 39 -15 -5 -21 -3 -25 16 -25 39 0 60 18
60 53 0 18 5 38 11 44 23 23 -9 19 -93 -11z"/>
<path d="M2670 324 c0 -35 -1 -37 -15 -18 -13 18 -14 16 -15 -23 0 -39 2 -43
25 -43 24 0 25 3 25 54 0 30 -4 58 -10 61 -6 4 -10 -9 -10 -31z"/>
<path d="M3669 125 c-18 -19 -52 -46 -76 -60 -50 -30 -55 -45 -14 -45 42 0 72
13 109 48 17 16 39 32 47 36 8 3 15 17 15 31 0 39 -42 34 -81 -10z"/>
</g>
</svg>
